<svg width="196" height="53" viewBox="0 0 196 53" fill="none" xmlns="http://www.w3.org/2000/svg">
<path d="M0.352007 52V1.09091H12.6567V42.0071H33.8357V52H0.352007ZM86.2735 26.5455C86.2735 32.1468 85.1964 36.8946 83.042 40.7891C80.8876 44.6835 77.971 47.6416 74.292 49.6634C70.6296 51.6851 66.5197 52.696 61.9624 52.696C57.3886 52.696 53.2704 51.6768 49.608 49.6385C45.9456 47.6001 43.0373 44.642 40.8829 40.7642C38.7451 36.8698 37.6762 32.1302 37.6762 26.5455C37.6762 20.9441 38.7451 16.1963 40.8829 12.3018C43.0373 8.40743 45.9456 5.44934 49.608 3.42756C53.2704 1.40577 57.3886 0.394884 61.9624 0.394884C66.5197 0.394884 70.6296 1.40577 74.292 3.42756C77.971 5.44934 80.8876 8.40743 83.042 12.3018C85.1964 16.1963 86.2735 20.9441 86.2735 26.5455ZM73.6954 26.5455C73.6954 23.2311 73.2231 20.4304 72.2785 18.1435C71.3505 15.8565 70.0081 14.1248 68.2515 12.9482C66.5115 11.7715 64.4151 11.1832 61.9624 11.1832C59.5264 11.1832 57.43 11.7715 55.6734 12.9482C53.9168 14.1248 52.5661 15.8565 51.6215 18.1435C50.6935 20.4304 50.2295 23.2311 50.2295 26.5455C50.2295 29.8598 50.6935 32.6605 51.6215 34.9474C52.5661 37.2344 53.9168 38.9661 55.6734 40.1428C57.43 41.3194 59.5264 41.9077 61.9624 41.9077C64.4151 41.9077 66.5115 41.3194 68.2515 40.1428C70.0081 38.9661 71.3505 37.2344 72.2785 34.9474C73.2231 32.6605 73.6954 29.8598 73.6954 26.5455ZM126.867 17.7209C126.585 16.6768 126.171 15.7571 125.624 14.9616C125.077 14.1496 124.406 13.4619 123.61 12.8984C122.815 12.335 121.903 11.9124 120.876 11.6307C119.848 11.3324 118.721 11.1832 117.495 11.1832C115.026 11.1832 112.888 11.7798 111.082 12.973C109.292 14.1662 107.908 15.9062 106.93 18.1932C105.953 20.4635 105.464 23.2228 105.464 26.4709C105.464 29.7356 105.936 32.5196 106.881 34.8232C107.825 37.1267 109.193 38.8833 110.982 40.093C112.772 41.3028 114.943 41.9077 117.495 41.9077C119.749 41.9077 121.655 41.5431 123.212 40.8139C124.787 40.0682 125.98 39.0159 126.792 37.657C127.604 36.2981 128.01 34.6989 128.01 32.8594L130.297 33.1328H117.918V24.1591H139.867V30.8956C139.867 35.4529 138.898 39.3556 136.959 42.6037C135.037 45.8518 132.385 48.3459 129.004 50.0859C125.64 51.826 121.771 52.696 117.396 52.696C112.54 52.696 108.273 51.6437 104.594 49.5391C100.915 47.4344 98.0479 44.4349 95.993 40.5405C93.9381 36.6295 92.9106 31.9893 92.9106 26.62C92.9106 22.4439 93.532 18.7401 94.7749 15.5085C96.0178 12.2604 97.7496 9.50947 99.9703 7.25568C102.207 5.00189 104.793 3.29498 107.726 2.13494C110.676 0.974903 113.849 0.394884 117.247 0.394884C120.196 0.394884 122.939 0.81747 125.475 1.66264C128.027 2.50781 130.28 3.70099 132.236 5.24219C134.208 6.78338 135.807 8.61458 137.033 10.7358C138.26 12.857 139.022 15.1854 139.32 17.7209H126.867ZM195.17 26.5455C195.17 32.1468 194.093 36.8946 191.938 40.7891C189.784 44.6835 186.867 47.6416 183.188 49.6634C179.526 51.6851 175.416 52.696 170.859 52.696C166.285 52.696 162.167 51.6768 158.505 49.6385C154.842 47.6001 151.934 44.642 149.779 40.7642C147.642 36.8698 146.573 32.1302 146.573 26.5455C146.573 20.9441 147.642 16.1963 149.779 12.3018C151.934 8.40743 154.842 5.44934 158.505 3.42756C162.167 1.40577 166.285 0.394884 170.859 0.394884C175.416 0.394884 179.526 1.40577 183.188 3.42756C186.867 5.44934 189.784 8.40743 191.938 12.3018C194.093 16.1963 195.17 20.9441 195.17 26.5455ZM182.592 26.5455C182.592 23.2311 182.12 20.4304 181.175 18.1435C180.247 15.8565 178.905 14.1248 177.148 12.9482C175.408 11.7715 173.312 11.1832 170.859 11.1832C168.423 11.1832 166.326 11.7715 164.57 12.9482C162.813 14.1248 161.463 15.8565 160.518 18.1435C159.59 20.4304 159.126 23.2311 159.126 26.5455C159.126 29.8598 159.59 32.6605 160.518 34.9474C161.463 37.2344 162.813 38.9661 164.57 40.1428C166.326 41.3194 168.423 41.9077 170.859 41.9077C173.312 41.9077 175.408 41.3194 177.148 40.1428C178.905 38.9661 180.247 37.2344 181.175 34.9474C182.12 32.6605 182.592 29.8598 182.592 26.5455Z" fill="black"/>
</svg>
