<svg width="24" height="23" viewBox="0 0 24 23" fill="none" xmlns="http://www.w3.org/2000/svg">
<path d="M9.68544 1.57087C10.6739 -0.280133 13.3259 -0.280133 14.3144 1.57087L23.4374 18.6379C23.6512 19.0378 23.7578 19.4863 23.7467 19.9396C23.7356 20.3929 23.6072 20.8357 23.3741 21.2246C23.141 21.6136 22.8112 21.9356 22.4166 22.1591C22.0221 22.3827 21.5764 22.5003 21.1229 22.5004H2.87694C2.42347 22.5003 1.97776 22.3827 1.58324 22.1591C1.18871 21.9356 0.858837 21.6136 0.625751 21.2246C0.392666 20.8357 0.264322 20.3929 0.253227 19.9396C0.242132 19.4863 0.348665 19.0378 0.562443 18.6379L9.68544 1.57087ZM12.3299 2.63137C12.2978 2.57184 12.2502 2.5221 12.1921 2.48744C12.134 2.45278 12.0676 2.43448 11.9999 2.43448C11.9323 2.43448 11.8659 2.45278 11.8078 2.48744C11.7497 2.5221 11.7021 2.57184 11.6699 2.63137L2.54694 19.6984C2.51638 19.7555 2.50112 19.8195 2.50265 19.8842C2.50418 19.949 2.52245 20.0122 2.55567 20.0678C2.5889 20.1234 2.63596 20.1694 2.69226 20.2014C2.74856 20.2334 2.81219 20.2503 2.87694 20.2504H21.1229C21.1877 20.2503 21.2513 20.2334 21.3076 20.2014C21.3639 20.1694 21.411 20.1234 21.4442 20.0678C21.4774 20.0122 21.4957 19.949 21.4972 19.8842C21.4988 19.8195 21.4835 19.7555 21.4529 19.6984L12.3299 2.63137ZM13.1249 8.62537V12.3754C13.1249 12.6737 13.0064 12.9599 12.7954 13.1709C12.5845 13.3818 12.2983 13.5004 11.9999 13.5004C11.7016 13.5004 11.4154 13.3818 11.2044 13.1709C10.9935 12.9599 10.8749 12.6737 10.8749 12.3754V8.62537C10.8749 8.327 10.9935 8.04085 11.2044 7.82987C11.4154 7.61889 11.7016 7.50037 11.9999 7.50037C12.2983 7.50037 12.5845 7.61889 12.7954 7.82987C13.0064 8.04085 13.1249 8.327 13.1249 8.62537ZM13.4999 16.5004C13.4999 16.8982 13.3419 17.2797 13.0606 17.561C12.7793 17.8423 12.3978 18.0004 11.9999 18.0004C11.6021 18.0004 11.2206 17.8423 10.9393 17.561C10.658 17.2797 10.4999 16.8982 10.4999 16.5004C10.4999 16.1025 10.658 15.721 10.9393 15.4397C11.2206 15.1584 11.6021 15.0004 11.9999 15.0004C12.3978 15.0004 12.7793 15.1584 13.0606 15.4397C13.3419 15.721 13.4999 16.1025 13.4999 16.5004Z" fill="#FF0E0E"/>
</svg>
