<svg id="Layer_1" data-name="Layer 1" xmlns="http://www.w3.org/2000/svg" xmlns:xlink="http://www.w3.org/1999/xlink" viewBox="0 0 792 792"><defs><style>.cls-1{fill:url(#linear-gradient);}.cls-2{fill:url(#linear-gradient-2);}.cls-3{fill:url(#linear-gradient-3);}.cls-4{fill:#0075bf;}.cls-5{font-size:44.8px;fill:#291f6c;font-family:Montserrat-Bold, Montserrat;font-weight:700;}</style><linearGradient id="linear-gradient" x1="281.62" y1="422.85" x2="444.28" y2="162.08" gradientUnits="userSpaceOnUse"><stop offset="0" stop-color="#472526"/><stop offset="0.54" stop-color="#5d0083"/><stop offset="1" stop-color="#2e52a0"/></linearGradient><linearGradient id="linear-gradient-2" x1="322.32" y1="448.24" x2="484.99" y2="187.47" xlink:href="#linear-gradient"/><linearGradient id="linear-gradient-3" x1="290.9" y1="428.64" x2="453.56" y2="167.86" xlink:href="#linear-gradient"/></defs><title>Untitled-1</title><path class="cls-1" d="M511.6,273.09c-1.69-1.45-3.36-2.68-4.79-4.15-5.23-5.4-10.48-10.79-15.52-16.36-3.1-3.44-4-7.52-3.51-12.3.66-7,.46-14.08.59-21.13.07-3.73.07-7.46.05-11.2,0-3-1.11-4.18-4.06-4.3-1.92-.08-3.86,0-5.79,0H329.86c-3.68.1-5.14,1.57-5.16,5.22,0,5.95.19,11.9-.12,17.83-.22,4-.37,8,.71,11.91,2.18,7.88,7.45,13.42,13.85,18q24.6,17.76,49.22,35.5a68.84,68.84,0,0,1,8,6.53,17.59,17.59,0,0,1-7.06,29.55c-6.31,2-11.88,0-17-3.54q-20.08-13.9-40-28c-6.35-4.51-12.87-8.91-18.62-14.12-10.46-9.46-15.37-21.68-16.61-35.71a335.34,335.34,0,0,1-.57-45.16c.34-7.43,1.17-14.85,1.91-22.27.45-4.47.57-4.47,5-4.47l169.44.24q17.22,0,34.43.12c1,0,1.94,0,2.9.06,2.53.2,3.52.91,3.86,3.45.62,4.65,1.21,9.32,1.43,14,.55,11.66,1.2,23.33,1.22,35a222.39,222.39,0,0,1-4.51,44A8.23,8.23,0,0,1,511.6,273.09Z"/><path class="cls-2" d="M313.39,310.63c4.31,3.05,8.07,5.84,12,8.44Q352.1,337,378.89,354.82q11.19,7.47,22.36,15c4.66,3.12,6.55,3,10.86-.6,12-10.16,24.11-20.27,36-30.57a25.18,25.18,0,0,0,8.78-14.89c1.41-8-1.74-14.61-7.39-19.89-4-3.75-8.62-6.88-13.08-10.13-9.7-7.08-19.49-14-29.2-21.08-5.42-3.94-5.72-6.14-1.87-11.66.82-1.18,1.68-2.33,2.62-3.63,2.2,1.2,4.37,2.23,6.39,3.52,2.85,1.8,4.18,4.51,3.31,7.81-.7,2.63.59,4.5,1.79,6.86l15.65-21a7.59,7.59,0,0,0-5.81-1l-1.4.35c-6.15,1.49-7.57,1.52-12.32-5.26a2.68,2.68,0,0,1,.34-2.45,27.86,27.86,0,0,1,3.83-3.77c2.38-2,3.89-2.23,6.56-.55,3.5,2.2,6.87,4.61,10.25,7q22.46,15.94,44.87,31.94a60.87,60.87,0,0,1,13,12.39c5.72,7.42,6.82,15.37,3,23.93A144.66,144.66,0,0,1,482.4,342.8c-17.3,24.15-39.87,42.29-65.38,57-2.51,1.45-5.07,2.82-7.62,4.2a6,6,0,0,1-6.12-.06c-22.54-12.43-43.22-27.26-60.49-46.53a174,174,0,0,1-27.26-40.65c-.69-1.42-1.16-2.95-1.71-4.43C313.68,312,313.63,311.61,313.39,310.63Z"/><path class="cls-3" d="M432.94,225c1.79,1.47,1.24,2.38.06,3.45-6.51,5.87-13,11.8-19.45,17.71-.6.55-1.18,1.13-1.94,1.85,2.53,2.39,4.87,4.72,7.33,6.91a7.35,7.35,0,0,0,7,1.49c2-.5,4.09-1,6.74-1.59L420.12,272a13,13,0,0,1,0-2,9.33,9.33,0,0,0-4.39-10.16c-2.8-1.83-5.85-3.29-9-5-2.51,5.29-4.91,10.3-7.29,15.33-1.74,3.67-3.41,7.38-5.22,11-.29.57-1.16.87-1.76,1.29-.38-.61-1.16-1.27-1.09-1.82.67-5.11,1.36-10.22,2.31-15.28.88-4.67,2.12-9.27,3.13-13.91.7-3.24-.22-5.16-2.93-7.08a85.5,85.5,0,0,1-8.89-6.75c-1.78-1.65-2.89-4-4.43-6.28a10.53,10.53,0,0,1,10.15,1.38,51.09,51.09,0,0,1,4.61,3.85c4.35,3.84,8.28,4.12,13.22,1.2q9.27-5.49,18.69-10.67A39.56,39.56,0,0,1,432.94,225Z"/><path class="cls-4" d="M162.53,514.2a77.92,77.92,0,0,1-22-3.07q-10.52-3.08-16.93-8l7.51-16.65a54.93,54.93,0,0,0,14.54,7.16,53.37,53.37,0,0,0,17,2.8,35.23,35.23,0,0,0,10.58-1.3,12.38,12.38,0,0,0,5.94-3.61,8.16,8.16,0,0,0,1.91-5.33,7.2,7.2,0,0,0-3-6.07,24.85,24.85,0,0,0-7.92-3.69q-4.92-1.43-10.85-2.73t-11.88-3.21a50.25,50.25,0,0,1-10.86-4.91,24.07,24.07,0,0,1-8-7.92q-3.08-4.92-3.07-12.56A26.64,26.64,0,0,1,130,430.17q4.44-6.76,13.38-10.79t22.46-4a75.2,75.2,0,0,1,17.75,2.11A51.24,51.24,0,0,1,199,423.82l-6.83,16.79A58.5,58.5,0,0,0,178.78,435a49.19,49.19,0,0,0-13.11-1.85,31,31,0,0,0-10.51,1.51,12.39,12.39,0,0,0-5.87,3.89,9,9,0,0,0-1.77,5.53,7.1,7.1,0,0,0,3,5.94,23.7,23.7,0,0,0,7.92,3.61c3.27.91,6.89,1.83,10.85,2.73s7.92,2,11.88,3.14A46.14,46.14,0,0,1,192,464.23a24.2,24.2,0,0,1,8,7.92q3.08,4.92,3.07,12.42a25.85,25.85,0,0,1-4.5,14.75q-4.52,6.69-13.45,10.78T162.53,514.2Z"/><path class="cls-4" d="M209.25,463.19V448.54h45.53v14.65Zm34.66,50.52q-11.59,0-18.06-5.92t-6.47-17.63V432.55h19v57.36a8.78,8.78,0,0,0,2.2,6.41,7.94,7.94,0,0,0,6,2.26,12.23,12.23,0,0,0,7.69-2.44l5.12,13.42a20.73,20.73,0,0,1-7,3.11A34,34,0,0,1,243.91,513.71Z"/><path class="cls-4" d="M290.41,513.71a30.35,30.35,0,0,1-13.18-2.62,20,20,0,0,1-8.42-7.14,19.35,19.35,0,0,1-.06-20.38q2.87-4.4,9.09-6.9t16.23-2.5h17.46v11.11H296.15q-6.72,0-9.22,2.19a7,7,0,0,0-2.5,5.49,6.84,6.84,0,0,0,2.87,5.8c1.91,1.43,4.54,2.14,7.87,2.14a16.33,16.33,0,0,0,8.55-2.26,13,13,0,0,0,5.49-6.65l2.93,8.79a17,17,0,0,1-7.57,9.64Q299.08,513.71,290.41,513.71Zm20-1V499.92l-1.22-2.81V474.17q0-6.1-3.72-9.52t-11.42-3.42a33.14,33.14,0,0,0-10.31,1.65,27.28,27.28,0,0,0-8.6,4.45L268.32,454a41.34,41.34,0,0,1,12.94-5.86,58,58,0,0,1,15.38-2.07q15,0,23.31,7.08t8.3,22.09v37.47Z"/><path class="cls-4" d="M358.49,523.84a33.62,33.62,0,0,1-10.13-1.58,22.4,22.4,0,0,1-8.17-4.4l6.95-13.54a16.64,16.64,0,0,0,5.07,3.05,15.79,15.79,0,0,0,5.67,1.09,10,10,0,0,0,6.41-1.89,16.34,16.34,0,0,0,4.33-6.28l3.42-8.06,19.06-45.16h18.31l-23.7,56.15a41.8,41.8,0,0,1-7.26,12.45,23.12,23.12,0,0,1-9,6.34A31.29,31.29,0,0,1,358.49,523.84Z"/><path class="cls-4" d="M374.8,495.87c-30.65,0-40.33-48.8-40.33-48.8h19.14s5.21,33.48,31.77,32.85C390,479.8,379.46,495.87,374.8,495.87Z"/><path class="cls-4" d="M454.18,514.2a77.87,77.87,0,0,1-22-3.07q-10.51-3.08-16.93-8l7.51-16.65a54.63,54.63,0,0,0,14.54,7.16,53.27,53.27,0,0,0,17,2.8,35.23,35.23,0,0,0,10.58-1.3,12.3,12.3,0,0,0,5.93-3.61,8.12,8.12,0,0,0,1.92-5.33,7.21,7.21,0,0,0-3-6.07,24.74,24.74,0,0,0-7.92-3.69q-4.9-1.43-10.85-2.73t-11.88-3.21a50.16,50.16,0,0,1-10.85-4.91,24.1,24.1,0,0,1-8-7.92q-3.08-4.92-3.07-12.56a26.64,26.64,0,0,1,4.44-14.95q4.44-6.76,13.38-10.79t22.46-4a75.11,75.11,0,0,1,17.74,2.11,51.13,51.13,0,0,1,15.43,6.35l-6.83,16.79A58.43,58.43,0,0,0,470.43,435a49.25,49.25,0,0,0-13.11-1.85,31,31,0,0,0-10.51,1.51,12.39,12.39,0,0,0-5.87,3.89,9,9,0,0,0-1.78,5.53,7.1,7.1,0,0,0,3,5.94,23.89,23.89,0,0,0,7.92,3.61c3.28.91,6.9,1.83,10.86,2.73s7.92,2,11.87,3.14a46.4,46.4,0,0,1,10.86,4.78,24.29,24.29,0,0,1,8,7.92q3.06,4.92,3.07,12.42a25.79,25.79,0,0,1-4.51,14.75q-4.5,6.69-13.45,10.78T454.18,514.2Z"/><path class="cls-4" d="M525.32,513.71a30.35,30.35,0,0,1-13.18-2.62,20,20,0,0,1-8.42-7.14,19.35,19.35,0,0,1-.06-20.38q2.86-4.4,9.09-6.9t16.24-2.5h17.45v11.11H531.06q-6.72,0-9.21,2.19a7,7,0,0,0-2.51,5.49,6.84,6.84,0,0,0,2.87,5.8c1.91,1.43,4.54,2.14,7.87,2.14a16.33,16.33,0,0,0,8.55-2.26,13,13,0,0,0,5.49-6.65l2.93,8.79a17,17,0,0,1-7.57,9.64Q534,513.71,525.32,513.71Zm20-1V499.92l-1.22-2.81V474.17q0-6.1-3.72-9.52T529,461.23a33.15,33.15,0,0,0-10.32,1.65,27.39,27.39,0,0,0-8.6,4.45L503.23,454a41.34,41.34,0,0,1,12.94-5.86,58,58,0,0,1,15.38-2.07q15,0,23.31,7.08t8.3,22.09v37.47Z"/><path class="cls-4" d="M572.55,463.19V448.54h45.53v14.65Zm10.13,49.55V445.61q0-11.1,6.6-17.76t18.79-6.65a36.71,36.71,0,0,1,8,.86,18.63,18.63,0,0,1,6.53,2.68l-5,13.79a13.2,13.2,0,0,0-3.54-1.71,14,14,0,0,0-4.15-.61,8.44,8.44,0,0,0-6.41,2.38q-2.25,2.39-2.25,7.14v6.1l.48,8.18v52.73Z"/><path class="cls-4" d="M659.33,513.71a42.23,42.23,0,0,1-19.71-4.39,32.39,32.39,0,0,1-13.12-12,32.83,32.83,0,0,1-4.64-17.39,33.42,33.42,0,0,1,4.58-17.52,32.48,32.48,0,0,1,12.51-12,39.17,39.17,0,0,1,35.33-.24,30.64,30.64,0,0,1,12.27,11.71q4.51,7.64,4.51,18.25c0,.73,0,1.57-.12,2.5s-.16,1.81-.24,2.63H637.36V474.17h43.33l-7.32,3.29a18.26,18.26,0,0,0-2.08-8.9,15.06,15.06,0,0,0-5.74-5.92A16.59,16.59,0,0,0,657,460.5a16.91,16.91,0,0,0-8.6,2.14,14.78,14.78,0,0,0-5.8,6,18.78,18.78,0,0,0-2.08,9.09v2.93a18.54,18.54,0,0,0,2.38,9.46,15.56,15.56,0,0,0,6.72,6.22,22.67,22.67,0,0,0,10.19,2.14,24.61,24.61,0,0,0,9.21-1.59,22.27,22.27,0,0,0,7.26-4.76l10.13,11A29.46,29.46,0,0,1,675.07,511,42,42,0,0,1,659.33,513.71Z"/><text class="cls-5" transform="translate(255.42 572.17)">M O R O C C O</text></svg>