<svg width="58" height="20" viewBox="0 0 58 20" fill="none" xmlns="http://www.w3.org/2000/svg">
<path d="M8.96881 9.65561H11.463V13.1589C10.6848 13.4089 9.70216 13.546 8.68069 13.546C4.54091 13.546 2.10781 10.001 2.10781 6.53877C2.10781 3.14308 4.30859 0.761211 7.37897 0.761211C9.32186 0.761211 10.4524 1.41941 11.4638 2.33627V3.47924L13.3602 1.58281C12.1607 0.771267 10.4238 0 7.94114 0C2.49113 0 0 3.89902 0 7.10329C0 11.6642 3.32205 14.4118 7.49675 14.4118C9.52095 14.4118 11.3182 14.1028 13.3943 13.5251V9.90573C13.3943 9.72065 13.4756 9.59366 13.5972 9.48215L14.2523 8.82703H9.8036L8.96881 9.65561Z" fill="url(#paint0_linear_145_2817)"/>
<path d="M20.1418 4.89453C17.0048 4.89453 15.0612 7.18674 15.0612 9.61981C15.0612 11.7199 16.627 14.2133 19.7995 14.2133C22.8513 14.2133 24.7237 11.9166 24.7237 9.44094C24.7237 7.13487 22.8939 4.89538 20.1418 4.89538V4.89453ZM19.6213 5.56282C21.833 5.56282 22.8179 8.44425 22.8179 10.4994C22.8179 13.5559 20.525 13.6163 20.2509 13.6163C19.2016 13.6163 18.4683 12.9821 17.9193 12.1504C17.4361 11.3838 16.9638 9.95969 16.9638 8.56815C16.9638 7.18203 17.4175 6.50523 18.1315 6.00731C18.7154 5.63406 19.2621 5.56282 19.6206 5.56282H19.6213Z" fill="url(#paint1_linear_145_2817)"/>
<path d="M40.6476 4.89355C37.9078 4.89355 36.4257 6.62815 36.4257 8.56485C36.4257 10.0393 37.4819 11.7026 39.661 11.7026H40.2122C40.2122 11.7026 40.0621 12.0673 40.0613 12.4197C40.0613 12.9393 40.2479 13.2312 40.6443 13.6803C36.8949 13.9088 35.3879 15.4211 35.3879 17.0465C35.3879 18.4699 36.7509 19.8707 39.6152 19.8707C43.0062 19.8707 44.7624 17.9881 44.7624 16.1406C44.7624 14.8381 44.1135 14.1241 42.4703 12.8929C41.9871 12.5173 41.8934 12.2781 41.8934 11.997C41.8934 11.5943 42.1342 11.3279 42.2225 11.2273C42.3782 11.0631 42.6476 10.8757 42.7483 10.7859C43.3004 10.3182 44.0802 9.62596 44.0802 8.2444C44.0802 7.29658 43.686 6.48117 42.7878 5.71765H43.8843L44.7082 4.89372H40.6476V4.89355ZM39.8918 5.50995C40.389 5.50995 40.804 5.68575 41.2423 6.05048C41.7285 6.48877 42.5053 7.66658 42.5053 9.12394C42.5053 10.6967 41.2834 11.1272 40.622 11.1272C40.2984 11.1272 39.9105 11.0366 39.5821 10.8121C38.8526 10.339 38.1285 9.07979 38.1285 7.58139C38.1285 6.22934 38.9339 5.50995 39.8918 5.50995ZM40.9767 14.2774C41.1857 14.2774 41.336 14.2945 41.336 14.2945C41.336 14.2945 41.8293 14.6468 42.1739 14.91C42.9761 15.5442 43.4763 16.029 43.4763 16.8925C43.4763 18.0796 42.3751 19.0104 40.5918 19.0104C38.6342 19.0104 37.1381 18.099 37.1381 16.6107C37.1381 15.3778 38.1633 14.3168 40.9767 14.2774Z" fill="url(#paint2_linear_145_2817)"/>
<path d="M45.3021 13.9426H49.0632L49.6362 13.3697L48.5575 13.2349C48.2671 13.1993 48.0945 12.9484 48.0945 12.7053V1.3445C48.0945 1.12071 48.1982 1.0061 48.2741 0.933231L48.9525 0.254883H45.7451L44.9103 1.08966H46.157V12.8577C46.157 13.025 46.1044 13.1388 45.9913 13.2558L45.3021 13.9426Z" fill="url(#paint3_linear_145_2817)"/>
<path d="M54.1604 4.89453C52.0603 4.89453 49.8293 6.49515 49.8293 9.36884C49.8293 11.7422 51.43 14.2133 54.4206 14.2133C55.1663 14.2133 55.7804 14.1174 56.3557 13.8533C56.9729 13.5691 57.5668 13.1076 58.0004 12.5276C57.182 12.9403 56.5145 13.2113 55.6277 13.2113C53.9427 13.2113 52.3181 11.9956 51.7497 9.76075L57.7023 7.35478C57.3585 6.12895 56.3889 4.89453 54.1612 4.89453H54.1604ZM53.7716 5.55197C54.8984 5.55197 55.7129 6.4789 55.7129 7.20448C55.7129 7.43911 55.5659 7.56302 55.2746 7.67763L51.6157 9.15744C51.6157 9.15744 51.5167 8.6967 51.5167 8.19878C51.5167 6.1103 53.0267 5.55197 53.7716 5.55197Z" fill="url(#paint4_linear_145_2817)"/>
<path d="M30.7863 4.89453C27.6493 4.89453 25.7057 7.18674 25.7057 9.61981C25.7057 11.7199 27.2715 14.2133 30.4441 14.2133C33.4958 14.2133 35.3683 11.9166 35.3683 9.44094C35.3683 7.13487 33.5384 4.89538 30.7863 4.89538V4.89453ZM30.2659 5.56282C32.4776 5.56282 33.4625 8.44425 33.4625 10.4994C33.4625 13.5559 31.1696 13.6163 30.8954 13.6163C29.8462 13.6163 29.1128 12.9821 28.5639 12.1504C28.0807 11.3838 27.6083 9.95969 27.6083 8.56815C27.6083 7.18203 28.062 6.50523 28.7761 6.00731C29.3599 5.63406 29.9066 5.56282 30.2651 5.56282H30.2659Z" fill="url(#paint5_linear_145_2817)"/>
<defs>
<linearGradient id="paint0_linear_145_2817" x1="7.09073" y1="-0.0407958" x2="7.09073" y2="14.411" gradientUnits="userSpaceOnUse">
<stop stop-color="#196EEF"/>
<stop offset="0.5" stop-color="#186DEE"/>
<stop offset="1" stop-color="#1065E7"/>
</linearGradient>
<linearGradient id="paint1_linear_145_2817" x1="19.8573" y1="4.87246" x2="19.8573" y2="14.2172" gradientUnits="userSpaceOnUse">
<stop stop-color="#DE5744"/>
<stop offset="0.5" stop-color="#DB4632"/>
<stop offset="1" stop-color="#D13D29"/>
</linearGradient>
<linearGradient id="paint2_linear_145_2817" x1="40.0407" y1="4.87226" x2="40.0407" y2="19.8764" gradientUnits="userSpaceOnUse">
<stop stop-color="#1A6FEF"/>
<stop offset="0.25" stop-color="#1E72EF"/>
<stop offset="0.5" stop-color="#166BEC"/>
<stop offset="0.75" stop-color="#1267E9"/>
<stop offset="1" stop-color="#1063E5" stop-opacity="0.87"/>
</linearGradient>
<linearGradient id="paint3_linear_145_2817" x1="47.2389" y1="0.222664" x2="47.2389" y2="13.9558" gradientUnits="userSpaceOnUse">
<stop stop-color="#0AA561"/>
<stop offset="0.5" stop-color="#009B58"/>
<stop offset="1" stop-color="#00914B"/>
</linearGradient>
<linearGradient id="paint4_linear_145_2817" x1="53.8808" y1="4.87246" x2="53.8808" y2="14.1915" gradientUnits="userSpaceOnUse">
<stop stop-color="#DE5644"/>
<stop offset="0.5" stop-color="#DA4531"/>
<stop offset="1" stop-color="#CE3A28"/>
</linearGradient>
<linearGradient id="paint5_linear_145_2817" x1="30.5021" y1="4.89275" x2="30.5021" y2="14.1987" gradientUnits="userSpaceOnUse">
<stop stop-color="#FFC01A"/>
<stop offset="0.5" stop-color="#FFBA03"/>
<stop offset="1" stop-color="#FFB300"/>
</linearGradient>
</defs>
</svg>
