<svg width="14" height="10" viewBox="0 0 14 10" fill="none" xmlns="http://www.w3.org/2000/svg">
<path d="M10.8732 4.59812C12.0468 3.6341 12.8076 2.258 12.9999 0.751449C13.0104 0.663902 13.0036 0.575142 12.9798 0.490238C12.956 0.405334 12.9157 0.325948 12.8612 0.256614C12.8067 0.187279 12.7391 0.129354 12.6623 0.0861446C12.5854 0.0429354 12.5008 0.0152886 12.4132 0.00478286C12.3257 -0.00572289 12.2369 0.00111815 12.152 0.0249152C12.0671 0.0487123 11.9877 0.0889993 11.9184 0.143476C11.8491 0.197953 11.7911 0.265554 11.7479 0.342417C11.7047 0.41928 11.6771 0.503902 11.6666 0.59145C11.5072 1.71564 10.9473 2.74451 10.09 3.4889C9.2326 4.23329 8.13533 4.64317 6.9999 4.64317C5.86447 4.64317 4.7672 4.23329 3.90983 3.4889C3.05246 2.74451 2.49261 1.71564 2.33323 0.59145C2.32273 0.503902 2.29508 0.41928 2.25187 0.342417C2.20866 0.265554 2.15074 0.197953 2.0814 0.143476C2.01207 0.0889993 1.93268 0.0487123 1.84778 0.0249152C1.76287 0.00111815 1.67411 -0.00572289 1.58657 0.00478286C1.49902 0.0152886 1.4144 0.0429354 1.33753 0.0861446C1.26067 0.129354 1.19307 0.187279 1.13859 0.256614C1.08412 0.325948 1.04383 0.405334 1.02003 0.490238C0.996235 0.575142 0.989394 0.663902 0.9999 0.751449C1.19046 2.25701 1.94878 3.63297 3.1199 4.59812L1.58657 6.14478C1.47735 6.27232 1.42028 6.43637 1.42676 6.60415C1.43324 6.77194 1.50279 6.9311 1.62152 7.04983C1.74025 7.16856 1.89941 7.23811 2.0672 7.24459C2.23498 7.25107 2.39903 7.194 2.52657 7.08478L4.26657 5.35145C4.9131 5.67817 5.61314 5.88592 6.33323 5.96478V8.33812C6.33323 8.51493 6.40347 8.6845 6.5285 8.80952C6.65352 8.93455 6.82309 9.00478 6.9999 9.00478C7.17671 9.00478 7.34628 8.93455 7.4713 8.80952C7.59633 8.6845 7.66657 8.51493 7.66657 8.33812V5.96478C8.38666 5.88592 9.0867 5.67817 9.73323 5.35145L11.4732 7.08478C11.6008 7.194 11.7648 7.25107 11.9326 7.24459C12.1004 7.23811 12.2595 7.16856 12.3783 7.04983C12.497 6.9311 12.5666 6.77194 12.573 6.60415C12.5795 6.43637 12.5225 6.27232 12.4132 6.14478L10.8732 4.59812Z" fill="#414141"/>
</svg>
