<svg width="16" height="23" viewBox="0 0 16 23" fill="none" xmlns="http://www.w3.org/2000/svg">
<path d="M7.81524 9.87072C7.71524 9.86072 7.59524 9.86072 7.48524 9.87072C6.33745 9.83175 5.24989 9.34756 4.45287 8.52068C3.65586 7.6938 3.21198 6.58917 3.21524 5.44072C3.21524 2.99072 5.19524 1.00072 7.65524 1.00072C8.23766 0.990216 8.81644 1.09453 9.35854 1.3077C9.90064 1.52087 10.3954 1.83874 10.8147 2.24313C11.2339 2.64753 11.5695 3.13055 11.802 3.66461C12.0346 4.19867 12.1597 4.77331 12.1702 5.35572C12.1807 5.93813 12.0764 6.51691 11.8633 7.05901C11.6501 7.60111 11.3322 8.09592 10.9278 8.51517C10.5234 8.93443 10.0404 9.26993 9.50636 9.50251C8.9723 9.7351 8.39766 9.86022 7.81524 9.87072ZM2.81524 14.5607C0.395244 16.1807 0.395244 18.8207 2.81524 20.4307C5.56524 22.2707 10.0752 22.2707 12.8252 20.4307C15.2452 18.8107 15.2452 16.1707 12.8252 14.5607C10.0852 12.7307 5.57524 12.7307 2.81524 14.5607Z" stroke="black" stroke-width="2" stroke-linecap="round" stroke-linejoin="round"/>
</svg>
