_<svg width="55" height="54" viewBox="0 0 55 54" fill="none" xmlns="http://www.w3.org/2000/svg">
<path fill-rule="evenodd" clip-rule="evenodd" d="M55 41.0203C55 41.3216 54.9849 41.9693 54.9699 42.4815C54.9247 43.7168 54.8343 45.3136 54.6837 46.0367C54.4577 47.1213 54.1263 48.1608 53.6894 49.0194C53.1772 50.0288 52.5144 50.9477 51.731 51.731C50.9477 52.5144 50.0438 53.1772 49.0345 53.6894C48.1758 54.1263 47.1364 54.4577 46.0367 54.6837C45.3136 54.8343 43.7319 54.9247 42.5116 54.9699C41.9995 54.9849 41.3517 55 41.0504 55H13.9797C13.6784 55 13.0307 54.9849 12.5185 54.9699C11.2832 54.9247 9.68639 54.8343 8.9633 54.6837C7.87866 54.4577 6.83922 54.1263 5.98055 53.6894C4.97124 53.1772 4.05231 52.5144 3.26897 51.731C2.48562 50.9477 1.82279 50.0438 1.3106 49.0345C0.873733 48.1758 0.542317 47.1364 0.316351 46.0367C0.165708 45.3136 0.0753214 43.7319 0.0301283 42.5116C0.0150639 41.9995 0 41.3517 0 41.0504V13.9797C0 13.6784 0.0150639 13.0307 0.0301283 12.5185C0.0753214 11.2832 0.165708 9.68639 0.316351 8.9633C0.542317 7.87866 0.873733 6.83922 1.3106 5.98055C1.82279 4.97124 2.48562 4.05232 3.26897 3.26897C4.05231 2.48562 4.95618 1.82279 5.96549 1.3106C6.82416 0.873734 7.8636 0.542317 8.9633 0.316351C9.68639 0.165708 11.2681 0.0753225 12.4884 0.0301294C13.0005 0.0150651 13.6483 0 13.9496 0H41.0203C41.3216 0 41.9693 0.0150651 42.4815 0.0301294C43.7168 0.0753225 45.3136 0.165708 46.0367 0.316351C47.1213 0.542317 48.1608 0.873734 49.0194 1.3106C50.0288 1.82279 50.9477 2.48562 51.731 3.26897C52.5144 4.05232 53.1772 4.95618 53.6894 5.96549C54.1263 6.82416 54.4577 7.8636 54.6837 8.9633C54.8343 9.68639 54.9247 11.2681 54.9699 12.4884C54.9849 13.0005 55 13.6483 55 13.9496V41.0203Z" fill="url(#paint0_linear_145_3371)"/>
<path fill-rule="evenodd" clip-rule="evenodd" d="M41.9699 13.1507C38.264 9.44482 33.353 7.41113 28.1106 7.41113C17.3095 7.41113 8.5119 16.1937 8.5119 27.0099C8.5119 30.4596 9.41576 33.834 11.1331 36.8017L8.34619 46.9551L18.7406 44.2284C21.6028 45.7951 24.8266 46.6086 28.1106 46.6086H28.1257C38.9269 46.6086 47.7244 37.811 47.7244 27.0099C47.7094 21.7675 45.6757 16.8565 41.9699 13.1507ZM28.1106 43.2945C25.1882 43.2945 22.3109 42.5111 19.8102 41.0197L19.2227 40.6733L13.0463 42.2851L14.6883 36.2745L14.2966 35.6568C12.6697 33.0657 11.811 30.0679 11.811 26.9948C11.811 18.0164 19.1172 10.7102 28.1106 10.7102C32.4642 10.7102 36.5467 12.4125 39.6349 15.4856C42.708 18.5588 44.4103 22.6563 44.3952 27.0099C44.3952 35.9882 37.089 43.2945 28.1106 43.2945ZM37.0438 31.0923C36.5467 30.8513 34.1514 29.6612 33.6995 29.4955C33.2476 29.3298 32.9312 29.2545 32.5998 29.7365C32.2684 30.2336 31.3344 31.3333 31.0482 31.6497C30.762 31.9811 30.4757 32.0112 29.9937 31.7702C29.4966 31.5292 27.9299 31.0019 26.0619 29.3448C24.6006 28.0493 23.6215 26.4374 23.3352 25.9554C23.049 25.4582 23.3051 25.2021 23.5461 24.9611C23.7721 24.7352 24.0433 24.3887 24.2843 24.1025C24.5253 23.8162 24.6157 23.6053 24.7814 23.289C24.9471 22.9576 24.8567 22.6713 24.7362 22.4303C24.6157 22.1893 23.6365 19.779 23.2298 18.7998C22.8381 17.8507 22.4314 17.9713 22.1301 17.9562C21.8439 17.9411 21.5124 17.9411 21.1961 17.9411C20.8647 17.9411 20.3374 18.0616 19.8855 18.5588C19.4336 19.0559 18.1682 20.2309 18.1682 22.6412C18.1682 25.0515 19.9156 27.3714 20.1717 27.7028C20.4127 28.0343 23.6215 32.9754 28.5324 35.0994C29.7075 35.5966 30.6113 35.8978 31.3193 36.1238C32.4944 36.5004 33.5639 36.4402 34.4075 36.3197C35.3415 36.1841 37.2999 35.1296 37.7066 33.9847C38.1134 32.8398 38.1134 31.8606 37.9929 31.6497C37.8573 31.4689 37.5259 31.3484 37.0438 31.0923Z" fill="white"/>
<defs>
<linearGradient id="paint0_linear_145_3371" x1="27.5075" y1="54.9667" x2="27.5075" y2="-0.0136818" gradientUnits="userSpaceOnUse">
<stop stop-color="#25CF43"/>
<stop offset="1" stop-color="#61FD7D"/>
</linearGradient>
</defs>
</svg>
